<svg width="871" height="97" viewBox="0 0 871 97" fill="none" xmlns="http://www.w3.org/2000/svg">
<path d="M0.399414 2.86398V94H37.7754C52.7514 94 64.2714 90.032 72.3354 81.968C80.2714 73.904 84.3674 62.768 84.3674 48.432C84.3674 34.224 80.2714 23.088 72.3354 15.024C64.2714 6.95998 52.7514 2.86398 37.7754 2.86398H0.399414ZM22.0314 75.696V21.168H37.3914C45.1994 21.168 51.2154 23.472 55.4394 28.08C59.6634 32.688 61.8394 39.472 61.8394 48.432C61.8394 57.52 59.6634 64.304 55.4394 68.912C51.2154 73.52 45.1994 75.696 37.3914 75.696H22.0314Z" fill="white"/>
<path d="M134.719 96.048C148.543 96.048 159.807 91.696 168.511 82.992C177.087 74.288 181.439 62.768 181.439 48.432C181.439 34.224 177.087 22.704 168.511 13.872C159.807 5.16798 148.543 0.815979 134.719 0.815979C120.767 0.815979 109.503 5.16798 100.927 13.872C92.2234 22.704 87.9994 34.224 87.9994 48.432C87.9994 62.768 92.2234 74.288 100.927 82.992C109.503 91.696 120.767 96.048 134.719 96.048ZM117.183 69.552C112.703 64.56 110.527 57.52 110.527 48.432C110.527 39.472 112.703 32.432 117.183 27.312C121.535 22.192 127.295 19.632 134.719 19.632C141.887 19.632 147.775 22.192 152.383 27.312C156.735 32.432 159.039 39.472 159.039 48.432C159.039 57.52 156.735 64.56 152.383 69.552C147.775 74.672 141.887 77.232 134.719 77.232C127.295 77.232 121.535 74.672 117.183 69.552Z" fill="white"/>
<path d="M248.168 21.936C248.168 38.32 248.296 52.528 248.68 64.304C245.608 58.16 240.872 49.84 234.472 39.216L212.2 2.86398H188.904V94H209.512V74.928C209.512 58.544 209.256 44.592 209 32.816C211.56 38.064 216.296 46.384 223.208 57.648L245.48 94H268.776V2.86398H248.168V21.936Z" fill="white"/>
<path d="M329.041 2.86398H307.409V94H370.769V74.672H329.041V2.86398Z" fill="white"/>
<path d="M414.479 96.048C428.303 96.048 439.567 91.696 448.271 82.992C456.847 74.288 461.199 62.768 461.199 48.432C461.199 34.224 456.847 22.704 448.271 13.872C439.567 5.16798 428.303 0.815979 414.479 0.815979C400.527 0.815979 389.263 5.16798 380.687 13.872C371.983 22.704 367.759 34.224 367.759 48.432C367.759 62.768 371.983 74.288 380.687 82.992C389.263 91.696 400.527 96.048 414.479 96.048ZM396.943 69.552C392.463 64.56 390.287 57.52 390.287 48.432C390.287 39.472 392.463 32.432 396.943 27.312C401.295 22.192 407.055 19.632 414.479 19.632C421.647 19.632 427.535 22.192 432.143 27.312C436.495 32.432 438.799 39.472 438.799 48.432C438.799 57.52 436.495 64.56 432.143 69.552C427.535 74.672 421.647 77.232 414.479 77.232C407.055 77.232 401.295 74.672 396.943 69.552Z" fill="white"/>
<path d="M506.936 96.048C519.224 96.048 528.952 92.848 535.992 86.448C543.032 80.048 546.616 71.088 546.616 59.312V2.86398H524.984V59.568C524.984 65.456 523.32 69.808 520.248 72.88C517.048 75.952 512.568 77.36 506.936 77.36C501.176 77.36 496.696 75.952 493.624 72.88C490.552 69.808 489.016 65.456 489.016 59.568V2.86398H467.384V59.312C467.384 71.216 470.968 80.304 478.264 86.448C485.432 92.848 495.032 96.048 506.936 96.048Z" fill="white"/>
<path d="M578.236 2.86398H556.604V94H619.964V74.672H578.236V2.86398Z" fill="white"/>
<path d="M663.674 96.048C677.498 96.048 688.762 91.696 697.466 82.992C706.042 74.288 710.394 62.768 710.394 48.432C710.394 34.224 706.042 22.704 697.466 13.872C688.762 5.16798 677.498 0.815979 663.674 0.815979C649.722 0.815979 638.458 5.16798 629.882 13.872C621.178 22.704 616.954 34.224 616.954 48.432C616.954 62.768 621.178 74.288 629.882 82.992C638.458 91.696 649.722 96.048 663.674 96.048ZM646.138 69.552C641.658 64.56 639.482 57.52 639.482 48.432C639.482 39.472 641.658 32.432 646.138 27.312C650.49 22.192 656.25 19.632 663.674 19.632C670.842 19.632 676.73 22.192 681.338 27.312C685.69 32.432 687.994 39.472 687.994 48.432C687.994 57.52 685.69 64.56 681.338 69.552C676.73 74.672 670.842 77.232 663.674 77.232C656.25 77.232 650.49 74.672 646.138 69.552Z" fill="white"/>
<path d="M756.131 96.048C768.419 96.048 778.147 92.848 785.187 86.448C792.227 80.048 795.811 71.088 795.811 59.312V2.86398H774.179V59.568C774.179 65.456 772.515 69.808 769.443 72.88C766.243 75.952 761.763 77.36 756.131 77.36C750.371 77.36 745.891 75.952 742.819 72.88C739.747 69.808 738.211 65.456 738.211 59.568V2.86398H716.579V59.312C716.579 71.216 720.163 80.304 727.459 86.448C734.627 92.848 744.227 96.048 756.131 96.048Z" fill="white"/>
<path d="M836.73 0.815979C827.258 0.815979 819.322 4.01598 812.794 10.288C806.266 16.56 803.066 24.24 803.066 33.456C803.066 42.544 806.266 50.224 812.794 56.368C819.322 62.768 827.258 65.84 836.73 65.84C845.946 65.84 853.882 62.768 860.538 56.368C866.938 50.224 870.266 42.544 870.266 33.456C870.266 24.24 866.938 16.56 860.538 10.288C853.882 4.01598 845.946 0.815979 836.73 0.815979ZM836.73 58.544C829.434 58.544 823.29 56.24 818.426 51.376C813.434 46.768 811.002 40.752 811.002 33.456C811.002 26.288 813.434 20.144 818.426 15.28C823.29 10.544 829.434 8.11198 836.73 8.11198C843.898 8.11198 849.914 10.544 855.034 15.28C859.898 20.144 862.33 26.288 862.33 33.456C862.33 40.752 859.898 46.768 855.034 51.376C849.914 56.24 843.898 58.544 836.73 58.544ZM850.554 41.008C850.426 37.424 849.146 35.12 846.586 33.84C849.658 32.304 851.194 29.872 851.194 26.416C851.194 23.344 850.042 21.04 847.994 19.248C845.818 17.584 842.874 16.688 839.034 16.688H823.546V49.584H832.25V37.936H837.754C839.162 37.936 840.186 38.32 840.698 38.832C841.21 39.344 841.594 40.496 841.722 42.032L841.978 45.488C841.978 47.152 842.362 48.56 843.002 49.584H852.218C851.45 48.816 850.938 47.536 850.81 45.488L850.554 41.008ZM832.25 23.984H838.01C840.698 23.984 842.106 25.264 842.106 27.568C842.106 30 840.698 31.152 838.138 31.152H832.25V23.984Z" fill="white"/>
</svg>
