<svg width="1414" height="159" viewBox="0 0 1414 159" fill="none" xmlns="http://www.w3.org/2000/svg">
<path d="M0 3.41936V155.581H58.1939C82.584 155.581 101.411 148.742 114.676 135.065C127.941 121.601 134.573 103.008 134.573 79.5C134.573 55.9919 127.941 37.3992 114.676 23.7218C101.411 10.2581 82.584 3.41936 58.1939 3.41936H0ZM28.883 130.79V28.2097H57.766C72.7424 28.2097 84.2956 32.6976 92.4256 41.4597C100.556 50.2218 104.621 62.8307 104.621 79.5C104.621 96.1694 100.556 108.992 92.4256 117.754C84.2956 126.516 72.7424 130.79 57.766 130.79H28.883Z" fill="black"/>
<path d="M218.617 159C241.295 159 259.695 151.734 273.815 137.202C287.508 122.883 294.568 103.649 294.568 79.5C294.568 55.5645 287.508 36.3306 273.815 21.7984C259.695 7.26614 241.295 0 218.617 0C195.724 0 177.325 7.26614 163.418 21.7984C149.297 36.5444 142.451 55.7782 142.451 79.5C142.451 103.435 149.297 122.669 163.418 137.202C177.325 151.734 195.724 159 218.617 159ZM185.241 119.036C176.683 109.419 172.618 96.1694 172.618 79.5C172.618 62.8307 176.683 49.7944 185.241 39.9637C193.585 30.3468 204.71 25.4315 218.617 25.4315C232.523 25.4315 243.648 30.3468 252.206 39.9637C260.336 49.5807 264.615 62.8307 264.615 79.5C264.615 96.3831 260.336 109.633 252.206 119.036C243.648 128.867 232.523 133.569 218.617 133.569C204.71 133.569 193.585 128.867 185.241 119.036Z" fill="black"/>
<path d="M409.582 43.1694C409.582 71.1653 409.796 95.7419 410.438 116.899C405.089 107.069 396.103 91.6814 383.48 71.1653L340.905 3.41936H308.812V155.581H336.626V115.831C336.626 82.7057 336.198 58.129 335.77 42.1008C342.188 54.496 351.388 69.8831 362.941 87.8347L405.303 155.581H437.395V3.41936H409.582V43.1694Z" fill="black"/>
<path d="M528.878 3.41936H499.995V155.581H601.407V129.722H528.878V3.41936Z" fill="black"/>
<path d="M670.766 159C693.444 159 711.844 151.734 725.965 137.202C739.657 122.883 746.717 103.649 746.717 79.5C746.717 55.5645 739.657 36.3306 725.965 21.7984C711.844 7.26614 693.444 0 670.766 0C647.873 0 629.474 7.26614 615.567 21.7984C601.447 36.5444 594.6 55.7782 594.6 79.5C594.6 103.435 601.447 122.669 615.567 137.202C629.474 151.734 647.873 159 670.766 159ZM637.39 119.036C628.832 109.419 624.767 96.1694 624.767 79.5C624.767 62.8307 628.832 49.7944 637.39 39.9637C645.734 30.3468 656.859 25.4315 670.766 25.4315C684.672 25.4315 695.798 30.3468 704.356 39.9637C712.486 49.5807 716.765 62.8307 716.765 79.5C716.765 96.3831 712.486 109.633 704.356 119.036C695.798 128.867 684.672 133.569 670.766 133.569C656.859 133.569 645.734 128.867 637.39 119.036Z" fill="black"/>
<path d="M822.579 158.786C842.476 158.786 858.094 153.657 869.433 143.185C880.559 132.714 886.335 117.754 886.335 98.3065V3.41936H857.452V98.5202C857.452 110.06 854.457 118.823 848.466 124.806C842.476 130.79 833.704 133.782 822.579 133.782C811.24 133.782 802.682 130.79 796.691 124.806C790.701 118.823 787.705 110.06 787.705 98.5202V3.41936H758.822V98.3065C758.822 117.54 764.385 132.286 775.724 142.972C787.063 153.657 802.682 158.786 822.579 158.786Z" fill="black"/>
<path d="M933.7 3.41936H904.817V155.581H1006.23V129.722H933.7V3.41936Z" fill="black"/>
<path d="M1075.59 159C1098.27 159 1116.67 151.734 1130.79 137.202C1144.48 122.883 1151.54 103.649 1151.54 79.5C1151.54 55.5645 1144.48 36.3306 1130.79 21.7984C1116.67 7.26614 1098.27 0 1075.59 0C1052.7 0 1034.3 7.26614 1020.39 21.7984C1006.27 36.5444 999.422 55.7782 999.422 79.5C999.422 103.435 1006.27 122.669 1020.39 137.202C1034.3 151.734 1052.7 159 1075.59 159ZM1042.21 119.036C1033.65 109.419 1029.59 96.1694 1029.59 79.5C1029.59 62.8307 1033.65 49.7944 1042.21 39.9637C1050.56 30.3468 1061.68 25.4315 1075.59 25.4315C1089.49 25.4315 1100.62 30.3468 1109.18 39.9637C1117.31 49.5807 1121.59 62.8307 1121.59 79.5C1121.59 96.3831 1117.31 109.633 1109.18 119.036C1100.62 128.867 1089.49 133.569 1075.59 133.569C1061.68 133.569 1050.56 128.867 1042.21 119.036Z" fill="black"/>
<path d="M1227.4 158.786C1247.3 158.786 1262.92 153.657 1274.26 143.185C1285.38 132.714 1291.16 117.754 1291.16 98.3065V3.41936H1262.27V98.5202C1262.27 110.06 1259.28 118.823 1253.29 124.806C1247.3 130.79 1238.53 133.782 1227.4 133.782C1216.06 133.782 1207.5 130.79 1201.51 124.806C1195.52 118.823 1192.53 110.06 1192.53 98.5202V3.41936H1163.64V98.3065C1163.64 117.54 1169.21 132.286 1180.55 142.972C1191.89 153.657 1207.5 158.786 1227.4 158.786Z" fill="black"/>
<path d="M1359.44 0C1344.04 0 1331.2 5.12903 1320.72 15.3871C1310.02 25.6452 1304.89 38.254 1304.89 53C1304.89 67.746 1310.02 80.1411 1320.72 90.3992C1331.2 100.657 1344.04 105.786 1359.44 105.786C1374.85 105.786 1387.68 100.657 1398.38 90.3992C1408.65 80.1411 1414 67.746 1414 53C1414 38.254 1408.65 25.6452 1398.38 15.3871C1387.68 5.12903 1374.85 0 1359.44 0ZM1359.44 94.246C1347.46 94.246 1337.41 90.3992 1329.28 82.2782C1321.15 74.5847 1317.08 64.754 1317.08 53C1317.08 41.0323 1321.15 31.2016 1329.28 23.2944C1337.41 15.3871 1347.46 11.3266 1359.44 11.3266C1371.42 11.3266 1381.48 15.3871 1389.82 23.2944C1397.74 31.4153 1401.8 41.246 1401.8 53C1401.8 64.754 1397.74 74.5847 1389.82 82.4919C1381.69 90.3992 1371.64 94.246 1359.44 94.246ZM1381.48 64.754C1381.27 59.1976 1379.13 55.5645 1375.06 53.4274C1380.2 51.2903 1382.76 47.0161 1382.76 40.8186C1382.76 35.9032 1380.84 32.0565 1377.41 29.2782C1373.99 26.5 1369.07 25.004 1363.08 25.004H1338.26V79.7137H1350.67V59.4113H1362.22C1364.58 59.4113 1366.29 60.0524 1367.15 60.9073C1368 61.9758 1368.64 63.8992 1369.07 66.4637L1369.5 72.2339C1369.71 75.8669 1370.35 78.4314 1371.42 79.7137H1384.48C1383.19 78.2177 1382.34 75.6532 1382.12 72.2339L1381.48 64.754ZM1350.67 35.6895H1362.01C1367.15 35.6895 1369.93 38.0403 1369.93 42.3145C1369.93 47.0161 1367.36 49.1532 1362.44 49.1532H1350.67V35.6895Z" fill="black"/>
</svg>
