<svg width="847" height="97" viewBox="0 0 847 97" fill="none" xmlns="http://www.w3.org/2000/svg">
<path d="M0.473988 2.864V94H35.29C49.882 94 61.146 89.904 69.082 81.712C77.018 73.648 80.986 62.512 80.986 48.432C80.986 34.352 77.018 23.216 69.082 15.024C61.146 6.96 49.882 2.864 35.29 2.864H0.473988ZM17.754 79.152V17.712H35.034C43.994 17.712 50.906 20.4 55.77 25.648C60.634 30.896 63.066 38.448 63.066 48.432C63.066 58.416 60.634 66.096 55.77 71.344C50.906 76.592 43.994 79.152 35.034 79.152H17.754ZM131.267 96.048C144.835 96.048 155.843 91.696 164.291 82.992C172.483 74.416 176.707 62.896 176.707 48.432C176.707 34.096 172.483 22.576 164.291 13.872C155.843 5.168 144.835 0.815994 131.267 0.815994C117.571 0.815994 106.563 5.168 98.243 13.872C89.795 22.704 85.699 34.224 85.699 48.432C85.699 62.768 89.795 74.288 98.243 82.992C106.563 91.696 117.571 96.048 131.267 96.048ZM111.299 72.112C106.179 66.352 103.747 58.416 103.747 48.432C103.747 38.448 106.179 30.64 111.299 24.752C116.291 18.992 122.947 16.048 131.267 16.048C139.587 16.048 146.243 18.992 151.363 24.752C156.227 30.512 158.787 38.448 158.787 48.432C158.787 58.544 156.227 66.48 151.363 72.112C146.243 78 139.587 80.816 131.267 80.816C122.947 80.816 116.291 78 111.299 72.112ZM245.517 26.672C245.517 43.44 245.645 58.16 246.029 70.832C242.829 64.944 237.453 55.728 229.901 43.44L204.429 2.864H185.229V94H201.869V70.192C201.869 50.352 201.613 35.632 201.357 26.032C205.197 33.456 210.701 42.672 217.613 53.424L242.957 94H262.157V2.864H245.517V26.672ZM316.889 2.864H299.609V94H360.281V78.512H316.889V2.864ZM401.777 96.048C415.345 96.048 426.353 91.696 434.801 82.992C442.993 74.416 447.217 62.896 447.217 48.432C447.217 34.096 442.993 22.576 434.801 13.872C426.353 5.168 415.345 0.815994 401.777 0.815994C388.081 0.815994 377.073 5.168 368.753 13.872C360.305 22.704 356.209 34.224 356.209 48.432C356.209 62.768 360.305 74.288 368.753 82.992C377.073 91.696 388.081 96.048 401.777 96.048ZM381.809 72.112C376.689 66.352 374.257 58.416 374.257 48.432C374.257 38.448 376.689 30.64 381.809 24.752C386.801 18.992 393.457 16.048 401.777 16.048C410.097 16.048 416.753 18.992 421.873 24.752C426.737 30.512 429.297 38.448 429.297 48.432C429.297 58.544 426.737 66.48 421.873 72.112C416.753 78 410.097 80.816 401.777 80.816C393.457 80.816 386.801 78 381.809 72.112ZM492.603 95.92C504.507 95.92 513.851 92.848 520.635 86.576C527.291 80.304 530.747 71.344 530.747 59.696V2.864H513.467V59.824C513.467 66.736 511.675 71.984 508.091 75.568C504.507 79.152 499.259 80.944 492.603 80.944C485.819 80.944 480.699 79.152 477.115 75.568C473.531 71.984 471.739 66.736 471.739 59.824V2.864H454.459V59.696C454.459 71.216 457.787 80.048 464.571 86.448C471.355 92.848 480.699 95.92 492.603 95.92ZM559.084 2.864H541.804V94H602.476V78.512H559.084V2.864ZM643.972 96.048C657.54 96.048 668.548 91.696 676.996 82.992C685.188 74.416 689.412 62.896 689.412 48.432C689.412 34.096 685.188 22.576 676.996 13.872C668.548 5.168 657.54 0.815994 643.972 0.815994C630.276 0.815994 619.268 5.168 610.948 13.872C602.5 22.704 598.404 34.224 598.404 48.432C598.404 62.768 602.5 74.288 610.948 82.992C619.268 91.696 630.276 96.048 643.972 96.048ZM624.004 72.112C618.884 66.352 616.452 58.416 616.452 48.432C616.452 38.448 618.884 30.64 624.004 24.752C628.996 18.992 635.652 16.048 643.972 16.048C652.292 16.048 658.948 18.992 664.068 24.752C668.932 30.512 671.492 38.448 671.492 48.432C671.492 58.544 668.932 66.48 664.068 72.112C658.948 78 652.292 80.816 643.972 80.816C635.652 80.816 628.996 78 624.004 72.112ZM734.798 95.92C746.702 95.92 756.046 92.848 762.83 86.576C769.486 80.304 772.942 71.344 772.942 59.696V2.864H755.662V59.824C755.662 66.736 753.87 71.984 750.286 75.568C746.702 79.152 741.454 80.944 734.798 80.944C728.014 80.944 722.894 79.152 719.31 75.568C715.726 71.984 713.934 66.736 713.934 59.824V2.864H696.654V59.696C696.654 71.216 699.982 80.048 706.766 86.448C713.55 92.848 722.894 95.92 734.798 95.92ZM813.796 0.815994C804.58 0.815994 796.9 3.88799 790.628 10.032C784.228 16.176 781.156 23.728 781.156 32.56C781.156 41.392 784.228 48.816 790.628 54.96C796.9 61.104 804.58 64.176 813.796 64.176C823.012 64.176 830.692 61.104 837.092 54.96C843.236 48.816 846.436 41.392 846.436 32.56C846.436 23.728 843.236 16.176 837.092 10.032C830.692 3.88799 823.012 0.815994 813.796 0.815994ZM813.796 57.264C806.628 57.264 800.612 54.96 795.748 50.096C790.884 45.488 788.452 39.6 788.452 32.56C788.452 25.392 790.884 19.504 795.748 14.768C800.612 10.032 806.628 7.6 813.796 7.6C820.964 7.6 826.98 10.032 831.972 14.768C836.708 19.632 839.14 25.52 839.14 32.56C839.14 39.6 836.708 45.488 831.972 50.224C827.108 54.96 821.092 57.264 813.796 57.264ZM826.98 39.6C826.852 36.272 825.572 34.096 823.14 32.816C826.212 31.536 827.748 28.976 827.748 25.264C827.748 22.32 826.596 20.016 824.548 18.352C822.5 16.688 819.556 15.792 815.972 15.792H801.124V48.56H808.548V36.4H815.46C816.868 36.4 817.892 36.784 818.404 37.296C818.916 37.936 819.3 39.088 819.556 40.624L819.812 44.08C819.94 46.256 820.324 47.792 820.964 48.56H828.772C828.004 47.664 827.492 46.128 827.364 44.08L826.98 39.6ZM808.548 22.192H815.332C818.404 22.192 820.068 23.6 820.068 26.16C820.068 28.976 818.532 30.256 815.588 30.256H808.548V22.192Z" fill="black"/>
</svg>
