<svg width="871" height="97" viewBox="0 0 871 97" fill="none" xmlns="http://www.w3.org/2000/svg">
<path d="M0.399488 2.864V94H37.7755C52.7515 94 64.2715 90.032 72.3355 81.968C80.2715 73.904 84.3675 62.768 84.3675 48.432C84.3675 34.224 80.2715 23.088 72.3355 15.024C64.2715 6.96 52.7515 2.864 37.7755 2.864H0.399488ZM22.0315 75.696V21.168H37.3915C45.1995 21.168 51.2155 23.472 55.4395 28.08C59.6635 32.688 61.8395 39.472 61.8395 48.432C61.8395 57.52 59.6635 64.304 55.4395 68.912C51.2155 73.52 45.1995 75.696 37.3915 75.696H22.0315ZM134.719 96.048C148.543 96.048 159.807 91.696 168.511 82.992C177.087 74.288 181.439 62.768 181.439 48.432C181.439 34.224 177.087 22.704 168.511 13.872C159.807 5.168 148.543 0.815994 134.719 0.815994C120.767 0.815994 109.503 5.168 100.927 13.872C92.2235 22.704 87.9995 34.224 87.9995 48.432C87.9995 62.768 92.2235 74.288 100.927 82.992C109.503 91.696 120.767 96.048 134.719 96.048ZM117.183 69.552C112.703 64.56 110.527 57.52 110.527 48.432C110.527 39.472 112.703 32.432 117.183 27.312C121.535 22.192 127.295 19.632 134.719 19.632C141.887 19.632 147.775 22.192 152.383 27.312C156.735 32.432 159.039 39.472 159.039 48.432C159.039 57.52 156.735 64.56 152.383 69.552C147.775 74.672 141.887 77.232 134.719 77.232C127.295 77.232 121.535 74.672 117.183 69.552ZM248.168 21.936C248.168 38.32 248.296 52.528 248.68 64.304C245.608 58.16 240.872 49.84 234.472 39.216L212.2 2.864H188.904V94H209.512V74.928C209.512 58.544 209.256 44.592 209 32.816C211.56 38.064 216.296 46.384 223.208 57.648L245.48 94H268.776V2.864H248.168V21.936ZM329.041 2.864H307.409V94H370.77V74.672H329.041V2.864ZM414.48 96.048C428.304 96.048 439.568 91.696 448.272 82.992C456.848 74.288 461.2 62.768 461.2 48.432C461.2 34.224 456.848 22.704 448.272 13.872C439.568 5.168 428.304 0.815994 414.48 0.815994C400.528 0.815994 389.264 5.168 380.688 13.872C371.984 22.704 367.76 34.224 367.76 48.432C367.76 62.768 371.984 74.288 380.688 82.992C389.264 91.696 400.528 96.048 414.48 96.048ZM396.944 69.552C392.464 64.56 390.288 57.52 390.288 48.432C390.288 39.472 392.464 32.432 396.944 27.312C401.296 22.192 407.056 19.632 414.48 19.632C421.648 19.632 427.536 22.192 432.144 27.312C436.496 32.432 438.8 39.472 438.8 48.432C438.8 57.52 436.496 64.56 432.144 69.552C427.536 74.672 421.648 77.232 414.48 77.232C407.056 77.232 401.296 74.672 396.944 69.552ZM506.937 96.048C519.225 96.048 528.953 92.848 535.993 86.448C543.033 80.048 546.617 71.088 546.617 59.312V2.864H524.985V59.568C524.985 65.456 523.321 69.808 520.249 72.88C517.049 75.952 512.569 77.36 506.937 77.36C501.177 77.36 496.697 75.952 493.625 72.88C490.553 69.808 489.017 65.456 489.017 59.568V2.864H467.385V59.312C467.385 71.216 470.969 80.304 478.265 86.448C485.433 92.848 495.033 96.048 506.937 96.048ZM578.237 2.864H556.605V94H619.965V74.672H578.237V2.864ZM663.675 96.048C677.499 96.048 688.763 91.696 697.467 82.992C706.043 74.288 710.395 62.768 710.395 48.432C710.395 34.224 706.043 22.704 697.467 13.872C688.763 5.168 677.499 0.815994 663.675 0.815994C649.723 0.815994 638.459 5.168 629.883 13.872C621.179 22.704 616.955 34.224 616.955 48.432C616.955 62.768 621.179 74.288 629.883 82.992C638.459 91.696 649.723 96.048 663.675 96.048ZM646.139 69.552C641.659 64.56 639.483 57.52 639.483 48.432C639.483 39.472 641.659 32.432 646.139 27.312C650.491 22.192 656.251 19.632 663.675 19.632C670.843 19.632 676.731 22.192 681.339 27.312C685.691 32.432 687.995 39.472 687.995 48.432C687.995 57.52 685.691 64.56 681.339 69.552C676.731 74.672 670.843 77.232 663.675 77.232C656.251 77.232 650.491 74.672 646.139 69.552ZM756.132 96.048C768.42 96.048 778.148 92.848 785.188 86.448C792.228 80.048 795.812 71.088 795.812 59.312V2.864H774.18V59.568C774.18 65.456 772.516 69.808 769.444 72.88C766.244 75.952 761.764 77.36 756.132 77.36C750.372 77.36 745.892 75.952 742.82 72.88C739.748 69.808 738.212 65.456 738.212 59.568V2.864H716.58V59.312C716.58 71.216 720.164 80.304 727.46 86.448C734.628 92.848 744.228 96.048 756.132 96.048ZM836.731 0.815994C827.259 0.815994 819.323 4.016 812.795 10.288C806.267 16.56 803.067 24.24 803.067 33.456C803.067 42.544 806.267 50.224 812.795 56.368C819.323 62.768 827.259 65.84 836.731 65.84C845.947 65.84 853.883 62.768 860.539 56.368C866.939 50.224 870.267 42.544 870.267 33.456C870.267 24.24 866.939 16.56 860.539 10.288C853.883 4.016 845.947 0.815994 836.731 0.815994ZM836.731 58.544C829.435 58.544 823.291 56.24 818.427 51.376C813.435 46.768 811.003 40.752 811.003 33.456C811.003 26.288 813.435 20.144 818.427 15.28C823.291 10.544 829.435 8.112 836.731 8.112C843.899 8.112 849.915 10.544 855.035 15.28C859.899 20.144 862.331 26.288 862.331 33.456C862.331 40.752 859.899 46.768 855.035 51.376C849.915 56.24 843.899 58.544 836.731 58.544ZM850.555 41.008C850.427 37.424 849.147 35.12 846.587 33.84C849.659 32.304 851.195 29.872 851.195 26.416C851.195 23.344 850.043 21.04 847.995 19.248C845.819 17.584 842.875 16.688 839.035 16.688H823.547V49.584H832.251V37.936H837.755C839.163 37.936 840.187 38.32 840.699 38.832C841.211 39.344 841.595 40.496 841.723 42.032L841.979 45.488C841.979 47.152 842.363 48.56 843.003 49.584H852.219C851.451 48.816 850.939 47.536 850.811 45.488L850.555 41.008ZM832.251 23.984H838.011C840.699 23.984 842.107 25.264 842.107 27.568C842.107 30 840.699 31.152 838.139 31.152H832.251V23.984Z" fill="black"/>
</svg>
